<svg width="25" height="24" viewBox="0 0 25 24" fill="none" xmlns="http://www.w3.org/2000/svg">
<g id="gamepad-old-svgrepo-com" clip-path="url(#clip0_5_850)">
<g id="Clip path group">
<mask id="mask0_5_850" style="mask-type:luminance" maskUnits="userSpaceOnUse" x="0" y="0" width="25" height="24">
<g id="clip0_1276_5879">
<path id="Vector" d="M24.5 0H0.5V24H24.5V0Z" fill="white"/>
</g>
</mask>
<g mask="url(#mask0_5_850)">
<g id="Group">
<path id="Vector_2" d="M16.5 10.5C16.5 11.0523 16.0523 11.5 15.5 11.5C14.9477 11.5 14.5 11.0523 14.5 10.5C14.5 9.94772 14.9477 9.5 15.5 9.5C16.0523 9.5 16.5 9.94772 16.5 10.5Z" fill="white"/>
<path id="Vector_3" d="M18.5 13.5C18.5 14.0523 18.0523 14.5 17.5 14.5C16.9477 14.5 16.5 14.0523 16.5 13.5C16.5 12.9477 16.9477 12.5 17.5 12.5C18.0523 12.5 18.5 12.9477 18.5 13.5Z" fill="white"/>
<path id="Vector_4" fill-rule="evenodd" clip-rule="evenodd" d="M15.5 -0.75C15.9142 -0.75 16.25 -0.414214 16.25 -1.19209e-07V1C16.25 1.9665 15.4665 2.75 14.5 2.75H13.5C13.3619 2.75 13.25 2.86193 13.25 3V3.25H14.5336C15.9053 3.25 16.9807 3.24999 17.8451 3.32061C18.7252 3.39252 19.4523 3.54138 20.1104 3.87671C21.1924 4.42798 22.072 5.30762 22.6233 6.38955C22.9586 7.04768 23.1075 7.77479 23.1794 8.65494C23.25 9.51928 23.25 10.5947 23.25 11.9664V12.0336C23.25 13.4053 23.25 14.4807 23.1794 15.3451C23.1075 16.2252 22.9586 16.9523 22.6233 17.6104C22.072 18.6924 21.1924 19.572 20.1104 20.1233C19.4523 20.4586 18.7252 20.6075 17.8451 20.6794C16.9807 20.75 15.9053 20.75 14.5336 20.75H10.4664C9.09471 20.75 8.01928 20.75 7.15494 20.6794C6.27479 20.6075 5.54769 20.4586 4.88955 20.1233C3.80762 19.572 2.92798 18.6924 2.37671 17.6104C2.04138 16.9523 1.89252 16.2252 1.82061 15.3451C1.74999 14.4807 1.75 13.4053 1.75 12.0336V11.9664C1.75 10.5947 1.74999 9.51929 1.82061 8.65494C1.89252 7.77479 2.04138 7.04768 2.37671 6.38955C2.92798 5.30762 3.80762 4.42798 4.88955 3.87671C5.54769 3.54138 6.27479 3.39252 7.15494 3.32061C8.01929 3.24999 9.09472 3.25 10.4664 3.25H11.75V3C11.75 2.0335 12.5335 1.25 13.5 1.25H14.5C14.6381 1.25 14.75 1.13807 14.75 1V-1.19209e-07C14.75 -0.414214 15.0858 -0.75 15.5 -0.75ZM10.5 4.75C9.08749 4.75 8.07322 4.75058 7.27708 4.81563C6.4897 4.87996 5.98197 5.00359 5.57054 5.21322C4.77085 5.62068 4.12068 6.27085 3.71322 7.07054C3.50359 7.48197 3.37996 7.9897 3.31563 8.77708C3.25058 9.57322 3.25 10.5875 3.25 12C3.25 13.4125 3.25058 14.4268 3.31563 15.2229C3.37996 16.0103 3.50359 16.518 3.71322 16.9295C4.12068 17.7291 4.77085 18.3793 5.57054 18.7868C5.98197 18.9964 6.4897 19.12 7.27708 19.1844C8.07322 19.2494 9.08749 19.25 10.5 19.25H14.5C15.9125 19.25 16.9268 19.2494 17.7229 19.1844C18.5103 19.12 19.018 18.9964 19.4295 18.7868C20.2291 18.3793 20.8793 17.7291 21.2868 16.9295C21.4964 16.518 21.62 16.0103 21.6844 15.2229C21.7494 14.4268 21.75 13.4125 21.75 12C21.75 10.5875 21.7494 9.57322 21.6844 8.77708C21.62 7.9897 21.4964 7.48197 21.2868 7.07054C20.8793 6.27085 20.2291 5.62068 19.4295 5.21322C19.018 5.00359 18.5103 4.87996 17.7229 4.81563C16.9268 4.75058 15.9125 4.75 14.5 4.75H10.5ZM8.5 9.25C8.91421 9.25 9.25 9.58579 9.25 10V11.25H10.5C10.9142 11.25 11.25 11.5858 11.25 12C11.25 12.4142 10.9142 12.75 10.5 12.75H9.25V14C9.25 14.4142 8.91421 14.75 8.5 14.75C8.08579 14.75 7.75 14.4142 7.75 14V12.75H6.5C6.08579 12.75 5.75 12.4142 5.75 12C5.75 11.5858 6.08579 11.25 6.5 11.25H7.75V10C7.75 9.58579 8.08579 9.25 8.5 9.25Z" fill="white"/>
</g>
</g>
</g>
</g>
<defs>
<clipPath id="clip0_5_850">
<rect width="24" height="24" fill="white" transform="translate(0.5)"/>
</clipPath>
</defs>
</svg>
