<svg width="24" height="24" viewBox="0 0 24 24" fill="none" xmlns="http://www.w3.org/2000/svg">
<g clip-path="url(#clip0_5_820)">
<path fill-rule="evenodd" clip-rule="evenodd" d="M16.5 12.75H12.75V16.5C12.75 16.9125 12.414 17.25 12 17.25C11.586 17.25 11.25 16.9125 11.25 16.5V12.75H7.5C7.086 12.75 6.75 12.4125 6.75 12C6.75 11.5875 7.086 11.25 7.5 11.25H11.25V7.5C11.25 7.0875 11.586 6.75 12 6.75C12.414 6.75 12.75 7.0875 12.75 7.5V11.25H16.5C16.914 11.25 17.25 11.5875 17.25 12C17.25 12.4125 16.914 12.75 16.5 12.75ZM21 0H3C1.34325 0 0 1.3425 0 3V21C0 22.6575 1.34325 24 3 24H21C22.6567 24 24 22.6575 24 21V3C24 1.3425 22.6567 0 21 0Z" fill="white"/>
</g>
<defs>
<clipPath id="clip0_5_820">
<rect width="24" height="24" fill="white"/>
</clipPath>
</defs>
</svg>
